# xmcd
#
# Track frame offsets:
#	150
#	21811
#	39000
#	56098
#	69533
#	84186
#	97540
#	107995
#	121414
#	136208
#	148267
#
# Disc length: 2159 seconds
#
# Revision: 0
# Processed by: cddbd v1.5.2PL0 Copyright (c) Steve Scherf et al.
# Submitted via: dBpowerAMP V4.0
#
DISCID=8a086d0b
DTITLE=C - This One Is Two
DYEAR=2008
DGENRE=Bluegrass
TTITLE0=Cold Shoulder
TTITLE1=Georgia
TTITLE2=They Say I'll Never Go Home
TTITLE3=L . A . County
TTITLE4=Train Songs
TTITLE5=Moms Are The Reason Wild Flowers Grow
TTITLE6=Carter
TTITLE7=Honky Tonk Way
TTITLE8=If This Old Guitar Could Talk
TTITLE9=Loretta
TTITLE10=Lord Help Me Find The Way
EXTD=
EXTT0=
EXTT1=
EXTT2=
EXTT3=
EXTT4=
EXTT5=
EXTT6=
EXTT7=
EXTT8=
EXTT9=
EXTT10=
PLAYORDER=
